<svg xmlns="http://www.w3.org/2000/svg" width="20" height="24" viewBox="0 0 24.005 24"><path class="a" d="M12,8.084a6.153,6.153,0,1,0,6.153,6.153A6.144,6.144,0,0,0,12,8.084Zm0,10.154a4,4,0,1,1,4-4A4.008,4.008,0,0,1,12,18.238ZM19.84,7.833A1.435,1.435,0,1,1,18.405,6.4,1.432,1.432,0,0,1,19.84,7.833Zm4.075,1.457a7.1,7.1,0,0,0-1.939-5.029,7.149,7.149,0,0,0-5.029-1.939c-1.981-.112-7.921-.112-9.9,0A7.139,7.139,0,0,0,2.018,4.255,7.126,7.126,0,0,0,.079,9.284c-.112,1.981-.112,7.921,0,9.9a7.1,7.1,0,0,0,1.939,5.029,7.158,7.158,0,0,0,5.029,1.939c1.981.112,7.921.112,9.9,0a7.1,7.1,0,0,0,5.029-1.939,7.149,7.149,0,0,0,1.939-5.029c.112-1.981.112-7.915,0-9.9Zm-2.56,12.023a4.05,4.05,0,0,1-2.281,2.281c-1.58.627-5.329.482-7.074.482s-5.5.139-7.074-.482a4.05,4.05,0,0,1-2.281-2.281c-.627-1.58-.482-5.329-.482-7.074s-.139-5.5.482-7.074A4.05,4.05,0,0,1,4.926,4.882C6.505,4.255,10.254,4.4,12,4.4s5.5-.139,7.074.482a4.05,4.05,0,0,1,2.281,2.281c.627,1.58.482,5.329.482,7.074S21.982,19.738,21.356,21.312Z" transform="translate(0.005 -2.238)"></path></svg>
