<svg xmlns="http://www.w3.org/2000/svg" viewBox="0 0 131.31 150" fill="#000" width="18"><g data-name="Layer 2"><g data-name="Layer 1"><path d="M53.72 57.58V82c-3.94 0-7.77-.54-11.38.11-10.63 1.89-18.51 12.46-17.5 22.76 1.12 11.45 10 20.23 20.76 20.65C57.46 126 67 118.37 68.75 107c.28-1.8.49-105.66.49-106.95h22C93 0 93.77.48 93.85 2.35c.83 18.57 16.72 34.76 36.37 35.17h1.09V62c-13.69 0-26-4.33-37.45-12.49-.08 1.55 0 37 0 53.63A46.77 46.77 0 0 1 47.32 150C22.86 150.15 2 131.29.14 107.45A46.51 46.51 0 0 1 40.2 57.67c4.31-.62 8.8-.09 13.52-.09Z" style="fill:#323232" data-name="0u7Ub3"></path></g></g></svg>
