<svg xmlns="http://www.w3.org/2000/svg" width="20" height="24" viewBox="0 0 29.55 24"><path class="a" d="M26.512,9.362c.019.262.019.525.019.788,0,8.006-6.094,17.231-17.231,17.231A17.114,17.114,0,0,1,0,24.662a12.528,12.528,0,0,0,1.462.075A12.129,12.129,0,0,0,8.981,22.15a6.067,6.067,0,0,1-5.663-4.2,7.637,7.637,0,0,0,1.144.094,6.405,6.405,0,0,0,1.594-.206A6.057,6.057,0,0,1,1.2,11.893v-.075a6.1,6.1,0,0,0,2.737.769,6.065,6.065,0,0,1-1.875-8.1A17.215,17.215,0,0,0,14.55,10.824a6.837,6.837,0,0,1-.15-1.387A6.062,6.062,0,0,1,24.881,5.293a11.924,11.924,0,0,0,3.844-1.462,6.04,6.04,0,0,1-2.663,3.337,12.141,12.141,0,0,0,3.487-.937,13.019,13.019,0,0,1-3.037,3.131Z" transform="translate(0 -3.381)"></path></svg>
