<svg xmlns="http://www.w3.org/2000/svg" xmlns:xlink="http://www.w3.org/1999/xlink" viewBox="0 0 1465.62 430.2"><defs><style>.cls-1{fill:url(#New_Gradient_Swatch_5);}.cls-2{fill:url(#New_Gradient_Swatch_5-2);}.cls-3{fill:url(#New_Gradient_Swatch_5-3);}.cls-4{fill:url(#New_Gradient_Swatch_5-4);}.cls-5{fill:url(#New_Gradient_Swatch_5-5);}.cls-6{fill:url(#New_Gradient_Swatch_5-6);}.cls-7{fill:url(#New_Gradient_Swatch_5-7);}.cls-8{fill:url(#New_Gradient_Swatch_5-8);}.cls-9{fill:url(#New_Gradient_Swatch_5-9);}.cls-10{fill:url(#New_Gradient_Swatch_5-10);}.cls-11{fill:url(#New_Gradient_Swatch_5-11);}.cls-12{fill:url(#linear-gradient);}.cls-13{fill:url(#linear-gradient-2);}.cls-14{fill:url(#linear-gradient-3);}.cls-15{fill:url(#linear-gradient-4);}.cls-16{fill:url(#linear-gradient-5);}.cls-17{fill:url(#linear-gradient-6);}.cls-18{fill:url(#linear-gradient-7);}.cls-19{fill:url(#linear-gradient-8);}.cls-20{fill:url(#linear-gradient-9);}.cls-21{fill:url(#linear-gradient-10);}.cls-22{fill:url(#linear-gradient-11);}.cls-23{fill:url(#linear-gradient-12);}.cls-24{fill:url(#linear-gradient-13);}.cls-25{fill:url(#linear-gradient-14);}.cls-26{fill:url(#linear-gradient-15);}.cls-27{fill:url(#linear-gradient-16);}.cls-28{fill:url(#linear-gradient-17);}.cls-29{fill:url(#linear-gradient-18);}.cls-30{fill:url(#linear-gradient-19);}.cls-31{fill:url(#linear-gradient-20);}</style><linearGradient id="New_Gradient_Swatch_5" x1="667.89" y1="243.55" x2="776.41" y2="135.04" gradientUnits="userSpaceOnUse"><stop offset="0" stop-color="#05b0e4"/><stop offset="0.31" stop-color="#0577c8"/><stop offset="0.71" stop-color="#00549f"/><stop offset="1" stop-color="#56419f"/></linearGradient><linearGradient id="New_Gradient_Swatch_5-2" x1="804.99" y1="240.22" x2="920.32" y2="124.89" xlink:href="#New_Gradient_Swatch_5"/><linearGradient id="New_Gradient_Swatch_5-3" x1="939.48" y1="245.29" x2="1064.47" y2="120.3" xlink:href="#New_Gradient_Swatch_5"/><linearGradient id="New_Gradient_Swatch_5-4" x1="1076.63" y1="243.55" x2="1185.15" y2="135.04" xlink:href="#New_Gradient_Swatch_5"/><linearGradient id="New_Gradient_Swatch_5-5" x1="1223.88" y1="222.58" x2="1334.2" y2="112.26" xlink:href="#New_Gradient_Swatch_5"/><linearGradient id="New_Gradient_Swatch_5-6" x1="1359.52" y1="208.88" x2="1459.88" y2="108.52" xlink:href="#New_Gradient_Swatch_5"/><linearGradient id="New_Gradient_Swatch_5-7" x1="517.66" y1="187.75" x2="712.04" y2="93" xlink:href="#New_Gradient_Swatch_5"/><linearGradient id="New_Gradient_Swatch_5-8" x1="513.42" y1="169.68" x2="684.45" y2="86.31" xlink:href="#New_Gradient_Swatch_5"/><linearGradient id="New_Gradient_Swatch_5-9" x1="68.6" y1="174.19" x2="299.7" y2="174.19" xlink:href="#New_Gradient_Swatch_5"/><linearGradient id="New_Gradient_Swatch_5-10" x1="176.44" y1="173.06" x2="334.56" y2="173.06" xlink:href="#New_Gradient_Swatch_5"/><linearGradient id="New_Gradient_Swatch_5-11" x1="270.1" y1="288.1" x2="335.78" y2="288.1" xlink:href="#New_Gradient_Swatch_5"/><linearGradient id="linear-gradient" x1="1905.14" y1="-1293.23" x2="1906.14" y2="-1293.23" gradientTransform="matrix(304.2, -304.2, -304.2, -304.2, -972872.43, 186509.12)" gradientUnits="userSpaceOnUse"><stop offset="0" stop-color="#05b0e4"/><stop offset="0.31" stop-color="#0577c8"/><stop offset="0.71" stop-color="#00549f"/><stop offset="1" stop-color="#56419f"/><stop offset="1" stop-color="#56419f"/></linearGradient><linearGradient id="linear-gradient-2" x1="481.34" y1="319.65" x2="1452.49" y2="327.28" gradientUnits="userSpaceOnUse"><stop offset="0" stop-color="#0279bb"/><stop offset="1" stop-color="#00549f"/></linearGradient><linearGradient id="linear-gradient-3" x1="481.35" y1="319.2" x2="1452.49" y2="326.84" xlink:href="#linear-gradient-2"/><linearGradient id="linear-gradient-4" x1="481.35" y1="318.8" x2="1452.51" y2="326.44" xlink:href="#linear-gradient-2"/><linearGradient id="linear-gradient-5" x1="481.35" y1="318.48" x2="1452.5" y2="326.11" xlink:href="#linear-gradient-2"/><linearGradient id="linear-gradient-6" x1="481.36" y1="318.21" x2="1452.51" y2="325.85" xlink:href="#linear-gradient-2"/><linearGradient id="linear-gradient-7" x1="481.38" y1="317.69" x2="1452.45" y2="325.32" xlink:href="#linear-gradient-2"/><linearGradient id="linear-gradient-8" x1="481.36" y1="317.35" x2="1452.53" y2="324.99" xlink:href="#linear-gradient-2"/><linearGradient id="linear-gradient-9" x1="481.37" y1="316.98" x2="1452.52" y2="324.62" xlink:href="#linear-gradient-2"/><linearGradient id="linear-gradient-10" x1="481.38" y1="316.54" x2="1452.52" y2="324.18" xlink:href="#linear-gradient-2"/><linearGradient id="linear-gradient-11" x1="481.38" y1="316.15" x2="1452.52" y2="323.78" xlink:href="#linear-gradient-2"/><linearGradient id="linear-gradient-12" x1="481.37" y1="315.71" x2="1452.54" y2="323.34" xlink:href="#linear-gradient-2"/><linearGradient id="linear-gradient-13" x1="481.39" y1="315.13" x2="1452.54" y2="322.77" xlink:href="#linear-gradient-2"/><linearGradient id="linear-gradient-14" x1="481.38" y1="314.74" x2="1452.55" y2="322.38" xlink:href="#linear-gradient-2"/><linearGradient id="linear-gradient-15" x1="481.39" y1="314.32" x2="1452.55" y2="321.96" xlink:href="#linear-gradient-2"/><linearGradient id="linear-gradient-16" x1="481.41" y1="313.84" x2="1452.55" y2="321.48" xlink:href="#linear-gradient-2"/><linearGradient id="linear-gradient-17" x1="481.41" y1="313.26" x2="1452.56" y2="320.9" xlink:href="#linear-gradient-2"/><linearGradient id="linear-gradient-18" x1="481.39" y1="312.94" x2="1452.56" y2="320.58" xlink:href="#linear-gradient-2"/><linearGradient id="linear-gradient-19" x1="481.39" y1="312.49" x2="1452.57" y2="320.13" xlink:href="#linear-gradient-2"/><linearGradient id="linear-gradient-20" x1="481.4" y1="312.08" x2="1452.57" y2="319.72" xlink:href="#linear-gradient-2"/></defs><g id="Layer_2" data-name="Layer 2"><g id="Layer_1-2" data-name="Layer 1"><path class="cls-1" d="M764.24,249.49,735.07,208c-2.7.19-5.6.39-8.5.39H693.15v41.14H673.83V114.27h52.74C761.73,114.27,783,132,783,161.4c0,20.87-10.82,35.93-29.75,42.7l32.07,45.39Zm-.58-88.09c0-19.31-12.94-30.33-37.67-30.33H693.15v60.86H726C750.72,191.93,763.66,180.72,763.66,161.4Z"/><path class="cls-2" d="M912.4,232.69v16.8H814.26V114.27H909.7v16.8H833.58v41.54h67.81V189H833.58v43.66Z"/><path class="cls-3" d="M987.73,189.41,963,214.53v35H943.69V114.27H963V189.8l73.41-75.53h22l-57.77,60.85,61.44,74.37H1039.5Z"/><path class="cls-4" d="M1173,249.49,1143.81,208c-2.7.19-5.6.39-8.5.39h-33.42v41.14h-19.32V114.27h52.74c35.16,0,56.41,17.77,56.41,47.13,0,20.87-10.82,35.93-29.75,42.7L1194,249.49Zm-.58-88.09c0-19.31-12.94-30.33-37.67-30.33h-32.84v60.86h32.84C1159.46,191.93,1172.4,180.72,1172.4,161.4Z"/><path class="cls-5" d="M1221.84,191.15V114.27h19.32v76.11c0,29.94,13.72,43.46,38.06,43.46s38.25-13.52,38.25-43.46V114.27h18.73v76.88c0,39.22-21.44,59.89-57.18,59.89C1243.48,251,1221.84,230.37,1221.84,191.15Z"/><path class="cls-6" d="M1400.14,131.07h-46.37v-16.8h111.85v16.8h-46.36V249.49h-19.12Z"/><path class="cls-7" d="M553.26,220l-1.53,1.22a.66.66,0,0,1-1.19,0L505.6,120.93a2.41,2.41,0,0,0-2.2-1.42H485.31a2.39,2.39,0,0,0-2.21,3.34l56.33,126.87a2.2,2.2,0,0,0,2,1.31h18.8a2.2,2.2,0,0,0,2-1.26l2.55-5.08-10.34-24.62A.66.66,0,0,0,553.26,220Z"/><path class="cls-8" d="M659.44,23.74l-14.57-5.85a2.87,2.87,0,0,0-4.06,1.24l-81.9,187.63a2.18,2.18,0,0,0,0,1.77l8.67,21.36a2.18,2.18,0,0,0,4,.08L660.58,27.42A2.87,2.87,0,0,0,659.44,23.74Z"/><path class="cls-9" d="M161.51,286a1.67,1.67,0,0,0-3.06-.05,1.69,1.69,0,0,1-3.09,0L98.52,157a4.19,4.19,0,0,0-4-2.5l-21.9.7a4.18,4.18,0,0,0-3.7,5.87l71.83,162.19a4.19,4.19,0,0,0,3.82,2.49H168a4.19,4.19,0,0,0,3.83-2.49l2-4.47a4.18,4.18,0,0,0,0-3.31ZM273.13,24.75,166.84,267a3.56,3.56,0,0,0,0,2.81l10.71,25.67a3.57,3.57,0,0,0,6.56.07q57.66-130.11,115.3-260.24a3.58,3.58,0,0,0-2-4.78l-19.73-7.7A3.57,3.57,0,0,0,273.13,24.75Z"/><path class="cls-10" d="M283.18,249c-5.31,1.09-13,2.36-17.72,3.11a3.23,3.23,0,0,1-3.16-1.33l-1.06-1.49-3-1.36a161,161,0,0,1-16.23.78H181.17l-1.54,0a3.28,3.28,0,0,1-2.89-4.64q3.27-7.11,6.53-14.21a3.28,3.28,0,0,1,3-1.9c5.77,0,13.74.06,23.2.13,30.93.21,29.37.38,31.9.26,14.11-.7,43.35-2.06,59-22.64,6.82-9,10.3-20.43,10.3-34,0-36.24-23.95-56.95-69.26-56.95h-37.9a3.27,3.27,0,0,1-3-4.59L206.7,96a3.27,3.27,0,0,1,3-2H242c57.6,0,92.55,29.13,92.55,77.67,0,34.54-17.67,59-48.87,70.2a2.31,2.31,0,0,0-1.11,3.51h0A2.3,2.3,0,0,1,283.18,249Z"/><path class="cls-11" d="M333.28,320.51H313.19a2.5,2.5,0,0,1-2-1.05l-40.59-57.09a2.49,2.49,0,0,1,1.65-3.91l18-2.75a2.5,2.5,0,0,1,2.41,1l42.63,59.84A2.49,2.49,0,0,1,333.28,320.51Z"/><path class="cls-12" d="M422.2,215.1h-8a199.19,199.19,0,1,1-34-111.31,198.49,198.49,0,0,1,34,111.31h16a215.15,215.15,0,1,0-36.74,120.27A214.44,214.44,0,0,0,430.2,215.1Z"/><path class="cls-13" d="M512.05,321.58a12.63,12.63,0,0,0,2.05-7.22,12.77,12.77,0,0,0-1.92-7.07,12.29,12.29,0,0,0-5.51-4.56,20.73,20.73,0,0,0-8.44-1.59H482.9V338.3h6.92V327.47h8.41c.64,0,1.12,0,1.44-.05l7.61,10.88h7.45l-8.57-12.21A12.18,12.18,0,0,0,512.05,321.58Zm-7.27-1.73q-2.34,1.93-6.87,1.94h-8.09V307h8.09c3,0,5.31.63,6.87,1.91a6.66,6.66,0,0,1,2.34,5.47A6.72,6.72,0,0,1,504.78,319.85Z"/><polygon class="cls-14" points="540.61 322.27 558.6 322.27 558.6 316.59 540.61 316.59 540.61 306.92 560.89 306.92 560.89 301.14 533.69 301.14 533.69 338.3 561.63 338.3 561.63 332.51 540.61 332.51 540.61 322.27"/><path class="cls-15" d="M591.82,308.33a14,14,0,0,1,6.87-1.67,13,13,0,0,1,9.95,4.35l4.48-4.19a17,17,0,0,0-6.39-4.62,21.37,21.37,0,0,0-8.36-1.59,21.13,21.13,0,0,0-10.2,2.46,18.46,18.46,0,0,0-9.76,16.65,18.87,18.87,0,0,0,2.58,9.82,18.21,18.21,0,0,0,7.13,6.82,21,21,0,0,0,10.2,2.47,21.54,21.54,0,0,0,8.38-1.59,17,17,0,0,0,6.42-4.62l-4.48-4.25a13,13,0,0,1-9.95,4.41,14,14,0,0,1-6.87-1.67,12.11,12.11,0,0,1-4.74-4.65,14.21,14.21,0,0,1,0-13.48A12,12,0,0,1,591.82,308.33Z"/><path class="cls-16" d="M660.79,321.58a12.56,12.56,0,0,0,2.05-7.22,12.77,12.77,0,0,0-1.92-7.07,12.19,12.19,0,0,0-5.51-4.56,20.7,20.7,0,0,0-8.44-1.59H631.64V338.3h6.92V327.47H647c.64,0,1.12,0,1.44-.05L656,338.3h7.46l-8.57-12.21A12.2,12.2,0,0,0,660.79,321.58Zm-7.27-1.73q-2.34,1.93-6.86,1.94h-8.1V307h8.1c3,0,5.3.63,6.86,1.91a6.66,6.66,0,0,1,2.35,5.47A6.73,6.73,0,0,1,653.52,319.85Z"/><path class="cls-17" d="M707.93,321.84q0,10.95-9.42,10.94T689,321.84v-20.7h-6.92v21q0,8.07,4.31,12.4t12,4.32q7.72,0,12-4.32t4.28-12.4v-21h-6.81Z"/><rect class="cls-18" x="736.3" y="301.14" width="6.92" height="37.17"/><polygon class="cls-19" points="760.37 306.98 772.72 306.98 772.72 338.3 779.64 338.3 779.64 306.98 791.99 306.98 791.99 301.14 760.37 301.14 760.37 306.98"/><polygon class="cls-20" points="844.11 301.14 829.58 325.77 814.77 301.14 809.08 301.14 809.08 338.3 815.68 338.3 815.68 313.99 827.92 334.06 831.01 334.06 843.26 313.67 843.31 338.3 849.86 338.3 849.8 301.14 844.11 301.14"/><polygon class="cls-21" points="878.71 322.27 896.71 322.27 896.71 316.59 878.71 316.59 878.71 306.92 899 306.92 899 301.14 871.79 301.14 871.79 338.3 899.74 338.3 899.74 332.51 878.71 332.51 878.71 322.27"/><polygon class="cls-22" points="945.58 326.3 925.03 301.14 919.33 301.14 919.33 338.3 926.2 338.3 926.2 313.13 946.75 338.3 952.45 338.3 952.45 301.14 945.58 301.14 945.58 326.3"/><polygon class="cls-23" points="969.53 306.98 981.88 306.98 981.88 338.3 988.81 338.3 988.81 306.98 1001.16 306.98 1001.16 301.14 969.53 301.14 969.53 306.98"/><polygon class="cls-24" points="1079.84 301.14 1065.31 325.77 1050.51 301.14 1044.81 301.14 1044.81 338.3 1051.41 338.3 1051.41 313.99 1063.66 334.06 1066.74 334.06 1078.99 313.67 1079.04 338.3 1085.59 338.3 1085.54 301.14 1079.84 301.14"/><path class="cls-25" d="M1119,301.14l-16.77,37.16h7.14l3.67-8.6h18.63l3.73,8.6h7.24l-16.82-37.16Zm-3.62,23.15,7-16.25,7,16.25Z"/><path class="cls-26" d="M1186.15,303.45a23.4,23.4,0,0,0-10.59-2.31h-16.29V338.3h16.29a23.4,23.4,0,0,0,10.59-2.31,17.06,17.06,0,0,0,7.19-6.53,19.81,19.81,0,0,0,0-19.48A17.06,17.06,0,0,0,1186.15,303.45Zm1.1,23a11.27,11.27,0,0,1-4.8,4.46,15.88,15.88,0,0,1-7.21,1.56h-9V307h9a15.88,15.88,0,0,1,7.21,1.56,11.27,11.27,0,0,1,4.8,4.46,14.36,14.36,0,0,1,0,13.44Z"/><polygon class="cls-27" points="1222.04 322.27 1240.03 322.27 1240.03 316.59 1222.04 316.59 1222.04 306.92 1242.32 306.92 1242.32 301.14 1215.11 301.14 1215.11 338.3 1243.06 338.3 1243.06 332.51 1222.04 332.51 1222.04 322.27"/><polygon class="cls-28" points="1296.14 322.27 1314.13 322.27 1314.13 316.59 1296.14 316.59 1296.14 306.92 1316.42 306.92 1316.42 301.14 1289.22 301.14 1289.22 338.3 1317.17 338.3 1317.17 332.51 1296.14 332.51 1296.14 322.27"/><path class="cls-29" d="M1348.26,301.14l-16.77,37.16h7.13l3.68-8.6h18.63l3.73,8.6h7.24l-16.83-37.16Zm-3.62,23.15,7-16.25,7,16.25Z"/><path class="cls-30" d="M1408.68,318.9a49.2,49.2,0,0,0-6.81-2q-3-.75-4.79-1.33a8.16,8.16,0,0,1-2.9-1.6,3.27,3.27,0,0,1-1.15-2.6,4.26,4.26,0,0,1,2-3.66q2-1.38,6.09-1.38a19.44,19.44,0,0,1,5.17.74,21.79,21.79,0,0,1,5.11,2.18l2.18-5.36a18.52,18.52,0,0,0-5.7-2.45,27,27,0,0,0-6.7-.84,20.54,20.54,0,0,0-8.28,1.48,11.33,11.33,0,0,0-5.06,4,9.88,9.88,0,0,0-1.68,5.6,8.53,8.53,0,0,0,1.89,5.82,11.33,11.33,0,0,0,4.53,3.15,54.25,54.25,0,0,0,6.89,2c2,.5,3.62.94,4.79,1.33a8.08,8.08,0,0,1,2.91,1.62,3.4,3.4,0,0,1,1.14,2.63,4,4,0,0,1-2,3.5c-1.37.89-3.43,1.33-6.2,1.33a20.43,20.43,0,0,1-6.68-1.14,19,19,0,0,1-5.62-2.95l-2.4,5.36a17.37,17.37,0,0,0,6.37,3.24,28.27,28.27,0,0,0,8.33,1.22,20.74,20.74,0,0,0,8.3-1.48,11.4,11.4,0,0,0,5.09-4,9.73,9.73,0,0,0,1.67-5.57,8.28,8.28,0,0,0-1.89-5.73A11.58,11.58,0,0,0,1408.68,318.9Z"/><polygon class="cls-31" points="1456.92 301.14 1445.89 319.24 1434.98 301.14 1427.58 301.14 1442.22 325.29 1442.22 338.3 1449.14 338.3 1449.14 325.19 1463.73 301.14 1456.92 301.14"/></g></g></svg>